<?xml version="1.0" encoding="UTF-8"?>
<!DOCTYPE svg PUBLIC "-//W3C//DTD SVG 1.1//EN" "http://www.w3.org/Graphics/SVG/1.1/DTD/svg11.dtd">
<svg version="1.2" width="95.5mm" height="83.5mm" viewBox="0 0 9550 8350" preserveAspectRatio="xMidYMid" fill-rule="evenodd" stroke-width="28.222" stroke-linejoin="round" xmlns="http://www.w3.org/2000/svg" xmlns:ooo="http://xml.openoffice.org/svg/export" xmlns:xlink="http://www.w3.org/1999/xlink" xmlns:presentation="http://sun.com/xmlns/staroffice/presentation" xmlns:smil="http://www.w3.org/2001/SMIL20/" xmlns:anim="urn:oasis:names:tc:opendocument:xmlns:animation:1.0" xmlns:svg="urn:oasis:names:tc:opendocument:xmlns:svg-compatible:1.0" xml:space="preserve">
 <defs class="ClipPathGroup">
  <clipPath id="presentation_clip_path" clipPathUnits="userSpaceOnUse">
   <rect x="0" y="0" width="9550" height="8350"/>
  </clipPath>
  <clipPath id="presentation_clip_path_shrink" clipPathUnits="userSpaceOnUse">
   <rect x="9" y="8" width="9531" height="8334"/>
  </clipPath>
 </defs>
 <defs class="TextShapeIndex">
  <g ooo:slide="id1" ooo:id-list="id3 id4 id5 id6 id7 id8 id9 id10"/>
 </defs>
 <defs class="EmbeddedBulletChars">
  <g id="bullet-char-template-57356" transform="scale(0.00048828125,-0.00048828125)">
   <path d="M 580,1141 L 1163,571 580,0 -4,571 580,1141 Z"/>
  </g>
  <g id="bullet-char-template-57354" transform="scale(0.00048828125,-0.00048828125)">
   <path d="M 8,1128 L 1137,1128 1137,0 8,0 8,1128 Z"/>
  </g>
  <g id="bullet-char-template-10146" transform="scale(0.00048828125,-0.00048828125)">
   <path d="M 174,0 L 602,739 174,1481 1456,739 174,0 Z M 1358,739 L 309,1346 659,739 1358,739 Z"/>
  </g>
  <g id="bullet-char-template-10132" transform="scale(0.00048828125,-0.00048828125)">
   <path d="M 2015,739 L 1276,0 717,0 1260,543 174,543 174,936 1260,936 717,1481 1274,1481 2015,739 Z"/>
  </g>
  <g id="bullet-char-template-10007" transform="scale(0.00048828125,-0.00048828125)">
   <path d="M 0,-2 C -7,14 -16,27 -25,37 L 356,567 C 262,823 215,952 215,954 215,979 228,992 255,992 264,992 276,990 289,987 310,991 331,999 354,1012 L 381,999 492,748 772,1049 836,1024 860,1049 C 881,1039 901,1025 922,1006 886,937 835,863 770,784 769,783 710,716 594,584 L 774,223 C 774,196 753,168 711,139 L 727,119 C 717,90 699,76 672,76 641,76 570,178 457,381 L 164,-76 C 142,-110 111,-127 72,-127 30,-127 9,-110 8,-76 1,-67 -2,-52 -2,-32 -2,-23 -1,-13 0,-2 Z"/>
  </g>
  <g id="bullet-char-template-10004" transform="scale(0.00048828125,-0.00048828125)">
   <path d="M 285,-33 C 182,-33 111,30 74,156 52,228 41,333 41,471 41,549 55,616 82,672 116,743 169,778 240,778 293,778 328,747 346,684 L 369,508 C 377,444 397,411 428,410 L 1163,1116 C 1174,1127 1196,1133 1229,1133 1271,1133 1292,1118 1292,1087 L 1292,965 C 1292,929 1282,901 1262,881 L 442,47 C 390,-6 338,-33 285,-33 Z"/>
  </g>
  <g id="bullet-char-template-9679" transform="scale(0.00048828125,-0.00048828125)">
   <path d="M 813,0 C 632,0 489,54 383,161 276,268 223,411 223,592 223,773 276,916 383,1023 489,1130 632,1184 813,1184 992,1184 1136,1130 1245,1023 1353,916 1407,772 1407,592 1407,412 1353,268 1245,161 1136,54 992,0 813,0 Z"/>
  </g>
  <g id="bullet-char-template-8226" transform="scale(0.00048828125,-0.00048828125)">
   <path d="M 346,457 C 273,457 209,483 155,535 101,586 74,649 74,723 74,796 101,859 155,911 209,963 273,989 346,989 419,989 480,963 531,910 582,859 608,796 608,723 608,648 583,586 532,535 482,483 420,457 346,457 Z"/>
  </g>
  <g id="bullet-char-template-8211" transform="scale(0.00048828125,-0.00048828125)">
   <path d="M -4,459 L 1135,459 1135,606 -4,606 -4,459 Z"/>
  </g>
  <g id="bullet-char-template-61548" transform="scale(0.00048828125,-0.00048828125)">
   <path d="M 173,740 C 173,903 231,1043 346,1159 462,1274 601,1332 765,1332 928,1332 1067,1274 1183,1159 1299,1043 1357,903 1357,740 1357,577 1299,437 1183,322 1067,206 928,148 765,148 601,148 462,206 346,322 231,437 173,577 173,740 Z"/>
  </g>
 </defs>
 <g>
  <g id="id2" class="Master_Slide">
   <g id="bg-id2" class="Background"/>
   <g id="bo-id2" class="BackgroundObjects"/>
  </g>
 </g>
 <g class="SlideGroup">
  <g>
   <g id="container-id1">
    <g id="id1" class="Slide" clip-path="url(#presentation_clip_path)">
     <g class="Page">
      <g class="Group">
       <g class="com.sun.star.drawing.CustomShape">
        <g id="id3">
         <rect class="BoundingBox" stroke="none" fill="none" x="850" y="500" width="7851" height="7851"/>
         <path fill="rgb(0,0,255)" stroke="none" d="M 4775,8300 L 900,8300 900,550 8650,550 8650,8300 4775,8300 Z"/>
         <path fill="none" stroke="rgb(0,0,0)" stroke-width="100" stroke-linejoin="round" d="M 4775,8300 L 900,8300 900,550 8650,550 8650,8300 4775,8300 Z"/>
        </g>
       </g>
       <g class="com.sun.star.drawing.CustomShape">
        <g id="id4">
         <rect class="BoundingBox" stroke="none" fill="none" x="7750" y="2300" width="1751" height="4251"/>
         <path fill="rgb(0,0,0)" stroke="none" d="M 8625,6550 L 7750,6550 7750,2300 9500,2300 9500,6550 8625,6550 Z"/>
        </g>
       </g>
       <g class="com.sun.star.drawing.CustomShape">
        <g id="id5">
         <rect class="BoundingBox" stroke="none" fill="none" x="50" y="2300" width="1751" height="4251"/>
         <path fill="rgb(0,0,0)" stroke="none" d="M 925,6550 L 50,6550 50,2300 1800,2300 1800,6550 925,6550 Z"/>
        </g>
       </g>
       <g class="com.sun.star.drawing.CustomShape">
        <g id="id6">
         <rect class="BoundingBox" stroke="none" fill="none" x="4200" y="0" width="1102" height="1102"/>
         <path fill="rgb(255,255,0)" stroke="none" d="M 5251,551 C 5251,638 5228,725 5184,801 5140,877 5077,940 5001,984 4925,1028 4838,1051 4751,1051 4663,1051 4576,1028 4500,984 4424,940 4361,877 4317,801 4273,725 4250,638 4250,551 4250,463 4273,376 4317,300 4361,224 4424,161 4500,117 4576,73 4663,50 4751,50 4838,50 4925,73 5001,117 5077,161 5140,224 5184,300 5228,376 5251,463 5251,551 L 5251,551 Z"/>
         <path fill="none" stroke="rgb(0,0,0)" stroke-width="100" stroke-linejoin="round" d="M 5251,551 C 5251,638 5228,725 5184,801 5140,877 5077,940 5001,984 4925,1028 4838,1051 4751,1051 4663,1051 4576,1028 4500,984 4424,940 4361,877 4317,801 4273,725 4250,638 4250,551 4250,463 4273,376 4317,300 4361,224 4424,161 4500,117 4576,73 4663,50 4751,50 4838,50 4925,73 5001,117 5077,161 5140,224 5184,300 5228,376 5251,463 5251,551 Z"/>
        </g>
       </g>
       <g class="com.sun.star.drawing.CustomShape">
        <g id="id7">
         <rect class="BoundingBox" stroke="none" fill="none" x="6350" y="0" width="1102" height="1102"/>
         <path fill="rgb(255,255,0)" stroke="none" d="M 7401,551 C 7401,638 7378,725 7334,801 7290,877 7227,940 7151,984 7075,1028 6988,1051 6901,1051 6813,1051 6726,1028 6650,984 6574,940 6511,877 6467,801 6423,725 6400,638 6400,551 6400,463 6423,376 6467,300 6511,224 6574,161 6650,117 6726,73 6813,50 6901,50 6988,50 7075,73 7151,117 7227,161 7290,224 7334,300 7378,376 7401,463 7401,551 L 7401,551 Z"/>
         <path fill="none" stroke="rgb(0,0,0)" stroke-width="100" stroke-linejoin="round" d="M 7401,551 C 7401,638 7378,725 7334,801 7290,877 7227,940 7151,984 7075,1028 6988,1051 6901,1051 6813,1051 6726,1028 6650,984 6574,940 6511,877 6467,801 6423,725 6400,638 6400,551 6400,463 6423,376 6467,300 6511,224 6574,161 6650,117 6726,73 6813,50 6901,50 6988,50 7075,73 7151,117 7227,161 7290,224 7334,300 7378,376 7401,463 7401,551 Z"/>
        </g>
       </g>
       <g class="com.sun.star.drawing.CustomShape">
        <g id="id8">
         <rect class="BoundingBox" stroke="none" fill="none" x="2100" y="0" width="1102" height="1102"/>
         <path fill="rgb(255,255,0)" stroke="none" d="M 3151,551 C 3151,638 3128,725 3084,801 3040,877 2977,940 2901,984 2825,1028 2738,1051 2651,1051 2563,1051 2476,1028 2400,984 2324,940 2261,877 2217,801 2173,725 2150,638 2150,551 2150,463 2173,376 2217,300 2261,224 2324,161 2400,117 2476,73 2563,50 2651,50 2738,50 2825,73 2901,117 2977,161 3040,224 3084,300 3128,376 3151,463 3151,551 L 3151,551 Z"/>
         <path fill="none" stroke="rgb(0,0,0)" stroke-width="100" stroke-linejoin="round" d="M 3151,551 C 3151,638 3128,725 3084,801 3040,877 2977,940 2901,984 2825,1028 2738,1051 2651,1051 2563,1051 2476,1028 2400,984 2324,940 2261,877 2217,801 2173,725 2150,638 2150,551 2150,463 2173,376 2217,300 2261,224 2324,161 2400,117 2476,73 2563,50 2651,50 2738,50 2825,73 2901,117 2977,161 3040,224 3084,300 3128,376 3151,463 3151,551 Z"/>
        </g>
       </g>
       <g class="com.sun.star.drawing.CustomShape">
        <g id="id9">
         <rect class="BoundingBox" stroke="none" fill="none" x="8100" y="3850" width="1102" height="1102"/>
         <path fill="rgb(255,255,0)" stroke="none" d="M 9151,4401 C 9151,4488 9128,4575 9084,4651 9040,4727 8977,4790 8901,4834 8825,4878 8738,4901 8651,4901 8563,4901 8476,4878 8400,4834 8324,4790 8261,4727 8217,4651 8173,4575 8150,4488 8150,4401 8150,4313 8173,4226 8217,4150 8261,4074 8324,4011 8400,3967 8476,3923 8563,3900 8651,3900 8738,3900 8825,3923 8901,3967 8977,4011 9040,4074 9084,4150 9128,4226 9151,4313 9151,4401 L 9151,4401 Z"/>
         <path fill="none" stroke="rgb(0,0,0)" stroke-width="100" stroke-linejoin="round" d="M 9151,4401 C 9151,4488 9128,4575 9084,4651 9040,4727 8977,4790 8901,4834 8825,4878 8738,4901 8651,4901 8563,4901 8476,4878 8400,4834 8324,4790 8261,4727 8217,4651 8173,4575 8150,4488 8150,4401 8150,4313 8173,4226 8217,4150 8261,4074 8324,4011 8400,3967 8476,3923 8563,3900 8651,3900 8738,3900 8825,3923 8901,3967 8977,4011 9040,4074 9084,4150 9128,4226 9151,4313 9151,4401 Z"/>
        </g>
       </g>
       <g class="com.sun.star.drawing.CustomShape">
        <g id="id10">
         <rect class="BoundingBox" stroke="none" fill="none" x="350" y="3850" width="1102" height="1102"/>
         <path fill="rgb(255,255,0)" stroke="none" d="M 1401,4401 C 1401,4488 1378,4575 1334,4651 1290,4727 1227,4790 1151,4834 1075,4878 988,4901 901,4901 813,4901 726,4878 650,4834 574,4790 511,4727 467,4651 423,4575 400,4488 400,4401 400,4313 423,4226 467,4150 511,4074 574,4011 650,3967 726,3923 813,3900 901,3900 988,3900 1075,3923 1151,3967 1227,4011 1290,4074 1334,4150 1378,4226 1401,4313 1401,4401 L 1401,4401 Z"/>
         <path fill="none" stroke="rgb(0,0,0)" stroke-width="100" stroke-linejoin="round" d="M 1401,4401 C 1401,4488 1378,4575 1334,4651 1290,4727 1227,4790 1151,4834 1075,4878 988,4901 901,4901 813,4901 726,4878 650,4834 574,4790 511,4727 467,4651 423,4575 400,4488 400,4401 400,4313 423,4226 467,4150 511,4074 574,4011 650,3967 726,3923 813,3900 901,3900 988,3900 1075,3923 1151,3967 1227,4011 1290,4074 1334,4150 1378,4226 1401,4313 1401,4401 Z"/>
        </g>
       </g>
      </g>
     </g>
    </g>
   </g>
  </g>
 </g>
</svg>